 <svg width="1119" height="315" viewBox="0 0 1119 315" fill="none" xmlns="http://www.w3.org/2000/svg">
<path d="M46.61 76.53L56.58 35.48L102.66 24.63L23.68 18.06L0 0L0.47998 52.54L46.61 76.53Z" fill="url(#paint0_linear_650_5499)"/>
<path d="M43.6595 83.7396L3.68945 63.0596L39.5794 100.54L43.6595 83.7396Z" fill="url(#paint1_linear_650_5499)"/>
<path d="M310.829 76.53L300.859 35.48L254.779 24.63L333.759 18.06L357.439 0L356.959 52.54L310.829 76.53Z" fill="url(#paint2_linear_650_5499)"/>
<path d="M313.779 83.7396L353.739 63.0596L317.859 100.54L313.779 83.7396Z" fill="url(#paint3_linear_650_5499)"/>
<path d="M98.4199 102.49L102.58 145.58L133.63 157.33L133.75 157.37L144.5 146.62L144.43 146.54L98.4199 102.49Z" fill="url(#paint4_linear_650_5499)"/>
<path d="M259.131 102.49L254.971 145.58L223.921 157.33L223.801 157.37L213.051 146.62L213.121 146.54L259.131 102.49Z" fill="url(#paint5_linear_650_5499)"/>
<path d="M303.74 84.6497L302.63 80.0697L293.76 43.5397L239.37 30.7297L178.72 16.4297L118.07 30.7297L63.6799 43.5397L54.8099 80.0697L53.6899 84.6497L49.4499 102.14L31.6699 175.34L91.4799 199.58L124.88 166.11L60.6699 141.82L73.4699 83.4497L145.39 71.0297L129.95 100.02L153.28 137.67L178.72 112.26L204.15 137.67L227.48 100.02L212.05 71.0297L283.97 83.4497L296.77 141.82L232.55 166.11L265.96 199.58L325.77 175.34L307.99 102.14L303.74 84.6497Z" fill="url(#paint6_linear_650_5499)"/>
<path d="M254.779 199.71L244.079 189.1L216.629 204.8L223.579 189.1L214.979 184.96L179.449 221.4L143.909 184.96L135.319 189.1L142.259 204.8L114.809 189.1L104.119 199.71L114.809 229.77L152.179 231.59L119.109 233.58L122.589 246.47L152.179 253.75L179.449 244.54L206.709 253.75L236.299 246.47L239.779 233.58L206.709 231.59L244.079 229.77L254.779 199.71Z" fill="url(#paint7_linear_650_5499)"/>
<path d="M178.769 135.13L148.029 168.29L180.309 203.11L210.619 169.12L178.769 135.13Z" fill="url(#paint8_linear_650_5499)"/>
<path d="M47.4902 198.18L75.0502 245.88L81.1902 231.06L111 263.95L92.6402 214.97L47.4902 198.18Z" fill="url(#paint9_linear_650_5499)"/>
<path d="M249.631 263.95L279.441 231.06L285.581 245.88L313.141 198.18L267.991 214.97L249.631 263.95Z" fill="url(#paint10_linear_650_5499)"/>
<path d="M179.451 256.56L169.101 260.7L152.061 267.51V292.27L169.101 306.25L179.451 314.74L189.801 306.25L206.831 292.27V267.51L189.801 260.7L179.451 256.56Z" fill="url(#paint11_linear_650_5499)"/>
<path d="M537.908 219.871C525.801 219.871 514.858 217.077 505.079 211.489C495.455 205.901 487.772 198.295 482.029 188.672C476.441 178.893 473.569 167.95 473.414 155.842V45.9457C473.414 43.1517 474.19 40.9786 475.742 39.4264C477.45 37.719 479.7 36.8652 482.494 36.8652C485.133 36.8652 487.229 37.719 488.781 39.4264C490.488 40.9786 491.342 43.1517 491.342 45.9457V114.398C496.464 107.103 503.216 101.282 511.598 96.9359C520.135 92.4345 529.604 90.1838 540.004 90.1838C551.956 90.1838 562.666 93.0554 572.135 98.7985C581.603 104.387 589.054 112.07 594.487 121.849C600.074 131.628 602.868 142.649 602.868 154.911C602.868 167.329 599.997 178.427 594.254 188.206C588.666 197.985 580.982 205.746 571.203 211.489C561.424 217.077 550.326 219.871 537.908 219.871ZM537.908 203.573C546.911 203.573 554.983 201.477 562.123 197.286C569.263 192.94 574.851 187.119 578.887 179.824C583.078 172.529 585.173 164.224 585.173 154.911C585.173 145.753 583.078 137.526 578.887 130.231C574.851 122.78 569.263 116.959 562.123 112.768C554.983 108.577 546.911 106.482 537.908 106.482C529.061 106.482 521.067 108.577 513.927 112.768C506.786 116.959 501.198 122.78 497.163 130.231C493.127 137.526 491.109 145.753 491.109 154.911C491.109 164.224 493.127 172.529 497.163 179.824C501.198 187.119 506.786 192.94 513.927 197.286C521.067 201.477 529.061 203.573 537.908 203.573ZM645.484 140.243C645.95 130.619 648.433 122.004 652.935 114.398C657.591 106.792 663.567 100.816 670.863 96.4702C678.313 92.124 686.54 89.9509 695.543 89.9509C702.683 89.9509 708.193 90.9599 712.074 92.9777C715.954 94.9956 717.429 97.9448 716.498 101.825C715.877 104.154 714.79 105.706 713.238 106.482C711.841 107.258 710.056 107.569 707.883 107.413C705.865 107.258 703.537 107.103 700.898 106.948C692.206 106.172 684.445 107.103 677.615 109.742C670.94 112.225 665.585 116.106 661.549 121.383C657.669 126.661 655.729 132.947 655.729 140.243H645.484ZM646.881 218.707C644.087 218.707 641.914 217.931 640.362 216.379C638.809 214.826 638.033 212.653 638.033 209.859V100.196C638.033 97.4016 638.809 95.2285 640.362 93.6762C641.914 92.124 644.087 91.3479 646.881 91.3479C649.675 91.3479 651.848 92.124 653.4 93.6762C654.952 95.2285 655.729 97.4016 655.729 100.196V209.859C655.729 212.653 654.952 214.826 653.4 216.379C651.848 217.931 649.675 218.707 646.881 218.707ZM800.086 220.104C789.066 220.104 779.209 217.853 770.517 213.352C761.824 208.695 754.917 201.943 749.795 193.096C744.827 184.248 742.344 173.46 742.344 160.732V100.196C742.344 97.712 743.198 95.6165 744.905 93.9091C746.613 92.2016 748.708 91.3479 751.192 91.3479C753.83 91.3479 756.003 92.2016 757.711 93.9091C759.418 95.6165 760.272 97.712 760.272 100.196V160.732C760.272 170.356 762.057 178.272 765.627 184.481C769.352 190.69 774.32 195.346 780.528 198.451C786.892 201.555 794.033 203.107 801.949 203.107C809.555 203.107 816.385 201.633 822.438 198.683C828.647 195.734 833.536 191.699 837.107 186.576C840.677 181.454 842.462 175.633 842.462 169.114H855.267C854.802 178.893 852.085 187.663 847.118 195.424C842.306 203.03 835.787 209.083 827.56 213.585C819.334 217.931 810.176 220.104 800.086 220.104ZM851.309 218.707C848.671 218.707 846.497 217.931 844.79 216.379C843.238 214.671 842.462 212.421 842.462 209.627V100.196C842.462 97.5568 843.238 95.4613 844.79 93.9091C846.497 92.2016 848.671 91.3479 851.309 91.3479C853.948 91.3479 856.121 92.2016 857.829 93.9091C859.536 95.4613 860.39 97.5568 860.39 100.196V209.627C860.39 212.421 859.536 214.671 857.829 216.379C856.121 217.931 853.948 218.707 851.309 218.707ZM952.069 218.707C943.842 218.707 936.469 216.767 929.95 212.886C923.586 209.006 918.541 203.728 914.816 197.054C911.091 190.224 909.228 182.463 909.228 173.77V59.9156C909.228 57.2768 910.004 55.1037 911.556 53.3963C913.264 51.6889 915.437 50.8352 918.076 50.8352C920.714 50.8352 922.888 51.6889 924.595 53.3963C926.302 55.1037 927.156 57.2768 927.156 59.9156V173.77C927.156 181.687 929.484 188.206 934.141 193.328C938.798 198.295 944.774 200.779 952.069 200.779H958.356C960.839 200.779 962.857 201.633 964.409 203.34C965.961 205.048 966.738 207.221 966.738 209.859C966.738 212.498 965.806 214.671 963.944 216.379C962.081 217.931 959.753 218.707 956.959 218.707H952.069ZM894.094 111.604C891.766 111.604 889.825 110.906 888.273 109.509C886.721 107.957 885.945 106.094 885.945 103.921C885.945 101.593 886.721 99.7299 888.273 98.3329C889.825 96.7807 891.766 96.0046 894.094 96.0046H953.466C955.794 96.0046 957.735 96.7807 959.287 98.3329C960.839 99.7299 961.615 101.593 961.615 103.921C961.615 106.094 960.839 107.957 959.287 109.509C957.735 110.906 955.794 111.604 953.466 111.604H894.094ZM1053.66 219.871C1041.09 219.871 1029.92 217.155 1020.14 211.722C1010.51 206.134 1002.91 198.451 997.319 188.672C991.886 178.893 989.169 167.717 989.169 155.144C989.169 142.416 991.731 131.24 996.853 121.616C1002.13 111.837 1009.35 104.154 1018.51 98.5657C1027.66 92.9777 1038.22 90.1838 1050.17 90.1838C1061.97 90.1838 1072.21 92.9001 1080.91 98.3329C1089.75 103.61 1096.58 110.983 1101.39 120.452C1106.21 129.92 1108.61 140.708 1108.61 152.816C1108.61 155.299 1107.84 157.317 1106.28 158.869C1104.73 160.266 1102.71 160.965 1100.23 160.965H1001.28V146.063H1102.09L1092.08 153.281C1092.24 144.278 1090.61 136.207 1087.19 129.067C1083.78 121.927 1078.89 116.339 1072.52 112.303C1066.31 108.267 1058.86 106.249 1050.17 106.249C1041.32 106.249 1033.56 108.345 1026.89 112.536C1020.21 116.727 1015.01 122.547 1011.29 129.998C1007.72 137.293 1005.93 145.675 1005.93 155.144C1005.93 164.612 1007.95 172.994 1011.99 180.29C1016.18 187.585 1021.84 193.328 1028.98 197.519C1036.12 201.71 1044.35 203.806 1053.66 203.806C1059.25 203.806 1064.84 202.874 1070.43 201.012C1076.17 198.994 1080.75 196.51 1084.16 193.561C1085.87 192.164 1087.81 191.466 1089.99 191.466C1092.16 191.31 1094.02 191.854 1095.57 193.096C1097.59 194.958 1098.6 196.976 1098.6 199.149C1098.76 201.322 1097.9 203.185 1096.04 204.737C1090.92 209.083 1084.4 212.731 1076.48 215.68C1068.57 218.474 1060.96 219.871 1053.66 219.871Z" fill="black"/>
<defs>
<linearGradient id="paint0_linear_650_5499" x1="-13.3834" y1="28.2041" x2="394.991" y2="132.005" gradientUnits="userSpaceOnUse">
<stop stop-color="#32DFFD"/>
<stop offset="1" stop-color="#1B8DFD"/>
</linearGradient>
<linearGradient id="paint1_linear_650_5499" x1="-24.0548" y1="70.1854" x2="384.319" y2="173.986" gradientUnits="userSpaceOnUse">
<stop stop-color="#32DFFD"/>
<stop offset="1" stop-color="#1B8DFD"/>
</linearGradient>
<linearGradient id="paint2_linear_650_5499" x1="5.3038" y1="-45.3184" x2="413.678" y2="58.4825" gradientUnits="userSpaceOnUse">
<stop stop-color="#32DFFD"/>
<stop offset="1" stop-color="#1B8DFD"/>
</linearGradient>
<linearGradient id="paint3_linear_650_5499" x1="-4.98948" y1="-4.82305" x2="403.385" y2="98.9778" gradientUnits="userSpaceOnUse">
<stop stop-color="#32DFFD"/>
<stop offset="1" stop-color="#1B8DFD"/>
</linearGradient>
<linearGradient id="paint4_linear_650_5499" x1="-29.8143" y1="92.8466" x2="378.56" y2="196.647" gradientUnits="userSpaceOnUse">
<stop stop-color="#32DFFD"/>
<stop offset="1" stop-color="#1B8DFD"/>
</linearGradient>
<linearGradient id="paint5_linear_650_5499" x1="-22.205" y1="62.9129" x2="386.169" y2="166.714" gradientUnits="userSpaceOnUse">
<stop stop-color="#32DFFD"/>
<stop offset="1" stop-color="#1B8DFD"/>
</linearGradient>
<linearGradient id="paint6_linear_650_5499" x1="-23.1715" y1="66.712" x2="385.202" y2="170.513" gradientUnits="userSpaceOnUse">
<stop stop-color="#32DFFD"/>
<stop offset="1" stop-color="#1B8DFD"/>
</linearGradient>
<linearGradient id="paint7_linear_650_5499" x1="-46.7092" y1="159.312" x2="361.665" y2="263.112" gradientUnits="userSpaceOnUse">
<stop stop-color="#32DFFD"/>
<stop offset="1" stop-color="#1B8DFD"/>
</linearGradient>
<linearGradient id="paint8_linear_650_5499" x1="-35.3205" y1="114.506" x2="373.054" y2="218.307" gradientUnits="userSpaceOnUse">
<stop stop-color="#32DFFD"/>
<stop offset="1" stop-color="#1B8DFD"/>
</linearGradient>
<linearGradient id="paint9_linear_650_5499" x1="-56.1957" y1="196.637" x2="352.178" y2="300.438" gradientUnits="userSpaceOnUse">
<stop stop-color="#32DFFD"/>
<stop offset="1" stop-color="#1B8DFD"/>
</linearGradient>
<linearGradient id="paint10_linear_650_5499" x1="-43.9276" y1="148.374" x2="364.446" y2="252.175" gradientUnits="userSpaceOnUse">
<stop stop-color="#32DFFD"/>
<stop offset="1" stop-color="#1B8DFD"/>
</linearGradient>
<linearGradient id="paint11_linear_650_5499" x1="-63.1471" y1="223.987" x2="345.227" y2="327.787" gradientUnits="userSpaceOnUse">
<stop stop-color="#32DFFD"/>
<stop offset="1" stop-color="#1B8DFD"/>
</linearGradient>
</defs>
</svg>
